<?xml version="1.0" encoding="UTF-8" standalone="no"?>
<!-- Designed by Javi Laguna -->
<svg xmlns="http://www.w3.org/2000/svg" xmlns:svg="http://www.w3.org/2000/svg" version="1.1" width="208" height="256" viewBox="0 0 208 256" preserveAspectRatio="xMidYMid meet">
  <style>#text { fill: #474848 } @media (prefers-color-scheme: dark) { #text { fill: #feffff } }</style>
  <path fill="#ffffff" d="M103.959 62.468c-11.09 0-16.358-26.66-16.923-29.705l-.388-2.082 2.07-.458c3.046-.67 8.173-1.47 15.24-1.47s12.208.8 15.242 1.47l2.058.458-.389 2.082c-.564 3.034-5.832 29.705-16.922 29.705z" />
  <path fill="#929393" d="M62.235 168.236c-3.375 0-6.856-.082-10.89-.176l-11.23-.247 1.105-2.893c3.363-8.796 2.646-23.508 2.023-36.479l-.036-.753c-.2-4.174-.4-8.126-.4-11.36 0-26.33 4.846-55.083 40.76-68.677l2.07-.788.753 2.081c4.41 12.113 10.254 18.31 17.404 18.405l4.151.058-2.399 3.399c-4.739 6.68-10.384 12.865-14.923 17.828-6.95 7.609-12.418 13.594-14.053 19.204v.258l-.188.377a29 29 0 0 0-1.752 9.913c0 16.182 13.16 29.341 29.329 29.341.035-.012.188-.035.353-.035h5.68l-4.21 3.81c-11.643 10.513-21.474 15.547-31.87 16.31-3.774.295-7.373.424-11.654.424z" />
  <path fill="#b8b7b7" d="M166.756 164.92c-3.34-8.761-2.634-23.45-2.01-36.408 4.55-54.719-19.51-74.229-40.478-80.967l-2.01-.647-.718 1.988c-.341.94-1.317 2.928-2.658 5.397l-1.787 3.34c-5.045 9.455-7.586 14.206-17.264 28.118l-2.658 3.822 4.646-.4c.787-.07 1.599-.106 2.399-.106 7.514 0 14.946 3.081 20.38 8.456.94.94.964 2.493.046 3.445l-1.305 1.353 1.152 1.493c6.221 8.056 6.21 21.12-.011 29.141l-1.176 1.517 1.352 1.364c.847.859.859 2.376.059 3.293-7.409 8.302-13.512 14.394-19.216 19.133l1.4 1.682s2.058 1.729 4.186 2.999c4.234 2.516 8.48 3.822 8.48 3.822l2.069.693c.34-1 1.27-1.658 2.328-1.658.259 0 .53.047.765.118 3.104 1.046 6.174 1.67 9.36 1.893 3.587.282 7.386.412 11.984.412 3.94 0 7.855-.094 12.007-.2 2.21-.059 4.433-.106 6.69-.153l3.117-.059-1.105-2.905z" />
  <path fill="#ffffff" d="M131.36 118.386a26.97 26.97 0 0 1-5.163 15.911c-4.916 6.81-12.936 11.243-21.98 11.243-15.005 0-27.153-12.148-27.153-27.154s12.148-27.153 27.154-27.153c9.055 0 17.063 4.422 22.002 11.242a27.04 27.04 0 0 1 5.151 15.911z" />
  <path fill="#474848" d="M176.305 165.602c-.658 0-1.082-.188-1.54-.658-4.48-4.704-3.563-23.638-2.964-36.162.236-4.551.435-8.867.435-12.454 0-40.406-14.217-63.867-45.945-75.521 1.54-6.104 2.199-10.89 2.234-11.16a4.62 4.62 0 0 0-2.857-4.904c-.306-.118-7.727-3.034-21.72-3.034-13.995 0-21.404 2.916-21.71 3.034a4.635 4.635 0 0 0-2.857 4.904c.035.282.694 5.068 2.234 11.171-31.68 11.666-45.875 35.139-45.875 75.51 0 3.587.212 7.915.435 12.454.612 12.536 1.529 31.47-2.94 36.162-.458.482-.894.658-1.54.658a4.622 4.622 0 0 0 0 9.243c7.69 0 13.77.141 19.133.26 4.069.093 7.738.187 11.336.187 4.034 0 7.974-.106 12.278-.435 18.957-1.435 34.468-14.735 51.908-34.292 1.646-1.881 1.74-4.645-.142-6.291-1.81-1.635-4.974-1.74-6.656 0-3.763 3.916-9.749 6.362-15.581 6.362-12.278 0-22.262-10.008-22.262-22.273s9.984-22.273 22.262-22.273c5.915 0 11.465 2.281 15.675 6.444 1.8 1.788 4.728 1.776 6.539-.035l.047-.047a4.647 4.647 0 0 0-.082-6.503c-5.95-5.869-13.818-9.114-22.18-9.114-.787 0-1.552.058-2.328.117 7.82-8.89 21.332-35.597 21.968-37.349 20.097 7.385 39.383 22.061 39.383 66.69 0 3.375-.2 7.573-.411 12.007-.647 13.37-1.376 28.165 2.14 37.373-2.787.058-5.35.117-7.75.164-8.726.2-15.029.353-22.708-.235-3.01-.212-5.904-.8-8.832-1.787-2.422-.8-5.045.494-5.856 2.916-.8 2.423.494 5.045 2.916 5.856a44.8 44.8 0 0 0 11.09 2.247c4.304.329 8.244.435 12.277.435 3.587 0 7.256-.094 11.348-.188 5.351-.118 11.42-.26 19.134-.26a4.62 4.62 0 0 0 4.621-4.62 4.63 4.63 0 0 0-4.621-4.622zm-87.293-78.45c-7.232 7.915-12.948 14.147-14.63 20.38 0 .012 0 .047-.01.082a31.2 31.2 0 0 0-1.93 10.772c0 17.37 14.136 31.528 31.517 31.528.117 0 .235-.035.353-.035-11.454 10.349-20.768 15.03-30.576 15.758-7.68.588-13.97.435-22.696.236-2.423-.047-4.975-.106-7.774-.165 3.516-9.208 2.81-24.002 2.164-37.373-.212-4.445-.435-8.632-.435-12.007 0-25.73 4.81-53.554 39.348-66.63 4.751 13.052 11.29 19.732 19.428 19.838-4.598 6.491-9.996 12.407-14.759 17.616m14.935-26.871c-6.832 0-12.454-15.464-14.77-27.918 3.022-.658 7.973-1.423 14.77-1.423s11.76.753 14.77 1.423c-2.316 12.454-7.926 27.918-14.77 27.918" />
  <path id="text" d="M123.809 177.727c-2.552 0-3.809 1.563-3.809 4.103v10.502c-2.552-2.905-7.467-2.881-10.666-1.059-3.434 1.988-4.94 5.54-4.916 9.774-.024 4.245 1.494 7.819 4.916 9.842 3.375 1.975 8.583 1.812 11.041-1.48l.047.517c.576 1.329 1.705 1.998 3.387 1.998 2.551 0 3.834-1.375 3.834-4.127V181.83c0-2.74-1.283-4.103-3.834-4.103M98.432 189.96c-3.066-.129-6.348 1.468-8.385 3.594l-.164-.74c-1.306-2.364-4-2.458-6.41-2.34-1.388 0-2.445.211-3.174.646-1.4.717-1.424 2.75-.307 3.668.765.8 2.717.684 3.881.684v11.23h-1.635c-4.15-.035-3.68 5.398.518 4.998h9.984c1.882.024 3.14-.742 3.2-2.494 0-2.858-3.165-2.504-5.329-2.492v-6.256c-.106-3.128 2.81-5.293 5.727-4.059 1.6.612 4.163.92 5.469-.421 1.305-1.165 1.387-4.47-.436-5.27-.92-.47-1.917-.705-2.94-.748m-59.35.014c-4.393.096-8.783 2.055-10.834 5.98-3.834 8.62 2.189 16.382 11.338 16.182 2.47.011 4.938-.59 6.902-1.825 5.151-2.857-.376-8.254-3.998-4.703-3.434 3.446-7.927-.164-7.574-4.55-.365-4.375 4.152-8.056 7.574-4.54 3.646 3.505 9.16-1.847 3.998-4.728-2.134-1.261-4.77-1.874-7.406-1.816m102.637.011a14.5 14.5 0 0 0-3.844.711c-6.738 1.87-9.16 10.903-5.586 16.43 2.176 3.399 6.068 5.045 10.078 5.045l-.012-.012c3.905-.047 7.937-.73 10.465-3.447.812-.859.836-2.892-.175-3.621-1.517-1.211-3.728-.459-5.233.494-3.293 2.446-8.832 1.775-9.303-3.117h11.737c1.293 0 2.234-.247 2.81-.74 1.67-1.717.706-5.527-.552-7.327-2.179-3.254-6.388-4.617-10.385-4.416m-78.469.026c-3.565-.217-7.389.258-10.14 1.978-1.094.73-1.047 2.918-.024 3.623 1.035.812 2.88.717 4.15.27 2.67-.753 8.386-1.728 9.174 2v1.693c-6.35-4.116-19.381.213-14.125 9.244 3.058 4.234 11.725 4.609 14.453-.084l.024.319c.176 2.022 1.717 2.693 3.834 2.693v.012c1.41-.012 4.387.165 5.222-.694 1.106-.8 1.117-2.834.153-3.705-.541-.588-1.683-.717-2.623-.67v-9.607c.035-3.704-3.34-5.857-6.668-6.645a27 27 0 0 0-3.43-.427m104.25 0c-3.565-.217-7.389.258-10.14 1.978-1.094.73-1.047 2.918-.024 3.623 1.035.812 2.882.717 4.152.27 2.67-.753 8.384-1.728 9.172 2v1.693c-6.35-4.116-19.38.213-14.123 9.244 3.058 4.234 11.725 4.609 14.453-.084l.024.319c.176 2.022 1.717 2.693 3.834 2.693v.012c1.41-.012 4.385.165 5.22-.694 1.106-.8 1.117-2.834.153-3.705-.541-.588-1.68-.717-2.621-.67v-9.607c.035-3.704-3.34-5.857-6.668-6.645a27 27 0 0 0-3.432-.427m-24.852 4.771c1.935-.025 3.835 1.206 4.141 3.77h-8.492c.447-2.464 2.417-3.745 4.351-3.77m-26.544.592c1.9-.057 3.781 1.561 3.896 3.59v4.68c-.294 2.598-3.612 4.164-5.74 2.494-1.505-1.141-2.092-3.034-2.092-5.08 0-2.058.563-3.905 2.092-5.022a3.16 3.16 0 0 1 1.844-.662m-54.463 6.746c1.825-.043 3.87.612 4.78 1.559v.965c-.893 1.505-2.787 2.787-4.704 2.74-1.717.023-3.622-.636-3.551-2.635.041-1.846 1.649-2.586 3.475-2.629m104.24 0c1.826-.043 3.868.612 4.78 1.559v.965c-.895 1.505-2.787 2.787-4.704 2.74-1.717.023-3.623-.636-3.553-2.635.041-1.846 1.651-2.586 3.477-2.629M32.859 219.627q-1.464 0-2.681.424c-.812.282-1.46.693-1.953 1.234a2.82 2.82 0 0 0-.729 1.94c0 1.093.411 1.964 1.223 2.634.823.67 2.07 1.212 3.763 1.647 1.259.33 2.223.705 2.881 1.129.659.423.989 1 .989 1.74 0 .506-.177.928-.506 1.293-.33.365-.764.648-1.305.836-.54.2-1.117.293-1.728.293-.906 0-1.659-.151-2.258-.469q-.9-.476-1.448-1.164a3 3 0 0 0-.505-.435 1.07 1.07 0 0 0-.612-.178c-.258 0-.47.083-.623.248a.81.81 0 0 0-.236.564c0 .388.188.741.553 1.059.494.553 1.176.999 2.035 1.351.858.353 1.882.53 3.058.53l-.035.011c1.035 0 1.976-.164 2.822-.482s1.516-.787 2.022-1.387.754-1.329.754-2.164c0-.788-.202-1.447-.602-1.988q-.6-.794-1.763-1.375c-.777-.388-1.729-.73-2.858-1.035-1.223-.341-2.129-.706-2.728-1.106s-.905-.917-.905-1.564c0-.423.154-.8.46-1.106.305-.305.716-.54 1.21-.705a5.1 5.1 0 0 1 1.612-.246c.764 0 1.422.128 1.963.399.54.258.963.6 1.246 1 .129.153.294.306.47.435.188.13.388.2.612.2a.83.83 0 0 0 .576-.211.78.78 0 0 0 .236-.577c0-.2-.06-.376-.142-.54a1.6 1.6 0 0 0-.387-.471c-.459-.553-1.095-.976-1.883-1.293-.788-.318-1.622-.471-2.598-.471m16.24 0q-1.463 0-2.681.424-1.215.423-1.953 1.234a2.82 2.82 0 0 0-.729 1.94c0 1.093.412 1.964 1.223 2.634.823.67 2.07 1.212 3.764 1.647 1.258.33 2.222.705 2.88 1.129.66.423.989 1 .989 1.74 0 .506-.177.928-.506 1.293-.33.365-.764.648-1.305.836-.54.2-1.117.293-1.728.293-.906 0-1.658-.151-2.258-.469q-.9-.476-1.447-1.164a3 3 0 0 0-.506-.435 1.07 1.07 0 0 0-.612-.178c-.258 0-.47.083-.623.248a.8.8 0 0 0-.234.564c0 .388.188.741.553 1.059.494.553 1.175.999 2.033 1.351.858.353 1.883.53 3.059.53l-.036.011c1.035 0 1.976-.164 2.823-.482.846-.317 1.515-.787 2.021-1.387s.754-1.329.754-2.164c0-.788-.2-1.447-.6-1.988q-.6-.794-1.765-1.375c-.776-.388-1.729-.73-2.858-1.035-1.223-.341-2.128-.706-2.728-1.106s-.904-.917-.904-1.564c0-.423.153-.8.459-1.106.305-.305.717-.54 1.21-.705a5.1 5.1 0 0 1 1.612-.246c.764 0 1.422.128 1.963.399.54.258.964.6 1.246 1 .13.153.294.306.47.435.189.13.388.2.612.2a.83.83 0 0 0 .576-.211.78.78 0 0 0 .236-.577c0-.2-.06-.376-.142-.54a1.6 1.6 0 0 0-.387-.471c-.459-.553-1.095-.976-1.883-1.293-.788-.318-1.621-.471-2.597-.471m68.137 0q-1.464 0-2.681.424c-.812.282-1.46.693-1.953 1.234a2.82 2.82 0 0 0-.729 1.94c0 1.093.411 1.964 1.223 2.634.823.67 2.07 1.212 3.763 1.647 1.259.33 2.223.705 2.881 1.129.659.423.989 1 .989 1.74 0 .506-.177.928-.506 1.293-.33.365-.764.648-1.305.836-.541.2-1.117.293-1.729.293-.905 0-1.658-.151-2.257-.469q-.9-.476-1.448-1.164a3 3 0 0 0-.505-.435 1.07 1.07 0 0 0-.612-.178c-.259 0-.47.083-.623.248a.81.81 0 0 0-.236.564c0 .388.188.741.553 1.059.493.553 1.176.999 2.035 1.351.858.353 1.882.53 3.058.53l-.037.011c1.035 0 1.978-.164 2.824-.482.847-.317 1.516-.787 2.022-1.387s.752-1.329.752-2.164c0-.788-.2-1.447-.6-1.988q-.6-.794-1.763-1.375c-.777-.388-1.729-.73-2.858-1.035-1.223-.341-2.129-.706-2.728-1.106s-.905-.917-.905-1.564c0-.423.152-.8.457-1.106.306-.305.72-.54 1.213-.705a5.1 5.1 0 0 1 1.612-.246c.764 0 1.422.128 1.962.399.541.258.964.6 1.247 1 .129.153.294.306.47.435.188.13.388.2.612.2a.83.83 0 0 0 .576-.211.78.78 0 0 0 .236-.577c0-.2-.06-.376-.142-.54a1.6 1.6 0 0 0-.387-.471c-.459-.553-1.095-.976-1.883-1.293-.788-.318-1.622-.471-2.598-.471m43.782.012c-.741 0-1.47.13-2.188.4a5.6 5.6 0 0 0-1.963 1.27c-.6.576-1.07 1.328-1.424 2.257-.352.941-.529 2.07-.529 3.399s.177 2.458.53 3.398c.352.941.835 1.694 1.423 2.27a5.6 5.6 0 0 0 1.963 1.27 6.15 6.15 0 0 0 4.363 0 5.6 5.6 0 0 0 1.963-1.27c.6-.576 1.071-1.34 1.424-2.27s.53-2.058.53-3.398-.177-2.47-.53-3.399-.836-1.681-1.424-2.257a5.6 5.6 0 0 0-1.963-1.27 6.1 6.1 0 0 0-2.175-.4m-100.041.011c-.318 0-.553.107-.717.319-.165.211-.248.528-.248.94v12.054c0 .835.318 1.246.965 1.246.646 0 .964-.411.964-1.246v-5.516h6.55v5.516c0 .835.317 1.246.964 1.246s.977-.411.977-1.246v-12.055c0-.835-.33-1.258-.977-1.258s-.965.423-.965 1.258v5.033h-6.549v-5.033c0-.835-.318-1.258-.964-1.258m41.23.036c-.317 0-.612.106-.86.318a1.76 1.76 0 0 0-.54.857l-4.127 12.032c-.036.105-.07.199-.082.28-.024.083-.024.167-.024.249 0 .282.07.482.246.635a.9.9 0 0 0 .635.222v-.011c.33 0 .578-.094.73-.27.165-.176.293-.46.387-.824l1.07-3.092h5.692l1.07 3.092q.16.562.389.824c.153.176.4.27.717.27q.387 0 .635-.211.247-.212.248-.635c0-.07-.012-.154-.012-.248a1.6 1.6 0 0 0-.07-.281l-4.13-12.032c-.117-.352-.293-.645-.54-.857a1.3 1.3 0 0 0-.87-.318zm69.441 0c-.388 0-.706.106-.941.318-.235.223-.352.528-.352.928v12.066c0 .811.317 1.211.94 1.211s.941-.4.941-1.21v-10.292l5.881 10.467c.177.33.376.589.612.765.235.177.528.27.869.27h.07c.4 0 .706-.107.941-.33.224-.224.342-.528.342-.916v-12.067q0-.602-.248-.904c-.165-.2-.4-.306-.693-.306-.635 0-.942.399-.942 1.21v10.268l-5.843-10.443c-.177-.33-.388-.588-.635-.764-.247-.188-.554-.271-.895-.271zm-28.847.07c-.388 0-.67.058-.858.187a.62.62 0 0 0-.283.553q0 .37.283.565c.189.129.47.2.858.2h2.693v11.29h-2.693c-.388 0-.67.07-.858.199a.64.64 0 0 0-.283.564.63.63 0 0 0 .283.541c.189.13.47.202.858.202h7.185c.388 0 .672-.072.86-.202a.62.62 0 0 0 .28-.54q.001-.372-.28-.565c-.188-.13-.472-.2-.86-.2h-2.609v-11.288h2.61c.387 0 .67-.072.859-.201a.66.66 0 0 0 .28-.565.62.62 0 0 0-.28-.553c-.188-.129-.472-.187-.86-.187zm-58.822.012c-.824 0-1.235.41-1.235 1.246v11.797c0 .834.411 1.246 1.235 1.246h3.986c1.07 0 1.976-.142 2.717-.436.74-.282 1.305-.728 1.693-1.316s.588-1.33.588-2.211q0-1.077-.387-1.766a3.2 3.2 0 0 0-.941-1.057 3.8 3.8 0 0 0-1.047-.529 3.3 3.3 0 0 0-.629-.148q.195-.024.523-.147c.283-.106.576-.27.881-.517s.566-.577.79-1.012c.223-.423.327-.976.327-1.647 0-.964-.234-1.691-.705-2.197-.47-.494-1.093-.835-1.857-1.023a10.6 10.6 0 0 0-2.53-.283zm43.394 0c-.412 0-.718.06-.93.189a.6.6 0 0 0-.316.553q0 .37.316.564c.212.13.518.2.93.2h3.41v11.689c0 .835.318 1.246.965 1.246s.975-.411.975-1.246v-11.69h3.576c.353 0 .622-.07.81-.199a.67.67 0 0 0 .284-.564c0-.494-.412-.742-1.247-.742zm33.645 1.377c.717 0 1.376.21 2 .634.623.412 1.127 1.058 1.515 1.916.388.859.588 1.941.588 3.27s-.2 2.423-.588 3.281c-.388.87-.892 1.504-1.515 1.928a3.53 3.53 0 0 1-2 .623c-.706 0-1.377-.2-2.012-.623-.635-.424-1.14-1.07-1.527-1.928-.389-.858-.577-1.964-.577-3.281s.188-2.411.577-3.27c.388-.858.892-1.492 1.527-1.916s1.294-.634 2.012-.634m-58.518.011a7 7 0 0 1 .143.565l2.293 6.89h-4.87l2.305-6.89c.024-.118.047-.213.07-.307s.047-.175.059-.258m-17.78.117h2.634q.9 0 1.623.176c.482.118.87.34 1.152.67s.424.8.424 1.424c0 .517-.107.964-.342 1.328a2.26 2.26 0 0 1-.963.848c-.423.2-.918.293-1.482.293H84.72zm0 6.127h3.14c.858 0 1.599.212 2.21.6.612.388.918 1.057.918 1.94 0 .881-.295 1.54-.87 1.976-.577.435-1.483.647-2.694.647l.012.011H84.72z" />
</svg>
