<?xml version="1.0" encoding="UTF-8" standalone="no"?>
<!-- Designed by Javi Laguna -->
<svg xmlns="http://www.w3.org/2000/svg" xmlns:svg="http://www.w3.org/2000/svg" version="1.1" width="512" height="208" viewBox="0 0 512 208" preserveAspectRatio="xMidYMid meet">
  <path fill="#ffffff" d="M93.513 67.656c-11.178 0-16.495-26.897-17.074-29.962l-.394-2.092 2.08-.456c3.078-.677 8.248-1.477 15.375-1.477s12.31.8 15.375 1.477l2.08.456-.394 2.092c-.566 3.065-5.884 29.962-17.073 29.962z" />
  <path fill="#929393" d="M51.426 174.356c-3.41 0-6.918-.086-10.98-.173l-11.325-.246 1.12-2.917c3.385-8.875 2.671-23.709 2.031-36.806l-.037-.75c-.21-4.223-.406-8.2-.406-11.461 0-26.564 4.887-55.566 41.114-69.279l2.093-.788.763 2.105c4.444 12.224 10.352 18.477 17.554 18.563l4.197.05-2.425 3.422C90.35 82.82 84.65 89.05 80.07 94.072c-7.016 7.681-12.53 13.713-14.18 19.376v.258l-.185.382a29.1 29.1 0 0 0-1.772 10.007c0 16.323 13.27 29.605 29.592 29.605.037-.012.185-.037.357-.037h5.724l-4.247 3.84c-11.743 10.612-21.665 15.683-32.153 16.459-3.803.295-7.435.418-11.755.418z" />
  <path fill="#b8b7b7" d="M156.87 171.02c-3.373-8.839-2.659-23.66-2.03-36.732 4.59-55.209-19.684-74.892-40.844-81.687l-2.031-.652-.727 2.006c-.344.948-1.329 2.955-2.683 5.441l-1.797 3.36c-5.096 9.54-7.657 14.329-17.418 28.362l-2.684 3.853 4.678-.406c.8-.074 1.612-.099 2.425-.099 7.582 0 15.079 3.114 20.557 8.53.948.949.972 2.512.049 3.484l-1.317 1.367 1.157 1.501c6.278 8.125 6.266 21.308-.012 29.408l-1.182 1.527 1.354 1.378c.85.862.874 2.4.062 3.324-7.472 8.383-13.64 14.513-19.388 19.301l1.415 1.7s2.08 1.747 4.223 3.015c4.271 2.536 8.555 3.853 8.555 3.853l2.093.702a2.46 2.46 0 0 1 2.338-1.675c.259 0 .53.037.776.124a37.7 37.7 0 0 0 9.441 1.908c3.62.283 7.46.418 12.088.418 3.976 0 7.928-.098 12.113-.197 2.228-.05 4.48-.11 6.758-.148l3.139-.049-1.12-2.942z" />
  <path fill="#ffffff" d="M121.172 124.07a27.2 27.2 0 0 1-5.207 16.053c-4.96 6.868-13.048 11.337-22.182 11.337-15.128 0-27.389-12.26-27.389-27.39 0-15.128 12.26-27.388 27.39-27.388 9.133 0 17.22 4.468 22.194 11.337a27.27 27.27 0 0 1 5.194 16.052" />
  <path fill="#474848" d="M166.509 171.71c-.665 0-1.084-.186-1.551-.666-4.53-4.739-3.595-23.843-2.992-36.485.234-4.592.431-8.95.431-12.568 0-40.77-14.34-64.441-46.346-76.197 1.551-6.155 2.229-10.98 2.253-11.263a4.66 4.66 0 0 0-2.88-4.949c-.308-.123-7.792-3.065-21.911-3.065s-21.592 2.942-21.9 3.065a4.65 4.65 0 0 0-2.88 4.949c.037.283.702 5.12 2.253 11.275-31.968 11.768-46.284 35.452-46.284 76.185 0 3.619.221 7.976.43 12.568.628 12.642 1.54 31.746-2.966 36.485-.468.48-.899.665-1.551.665a4.655 4.655 0 0 0-4.665 4.665 4.655 4.655 0 0 0 4.665 4.666c7.755 0 13.885.135 19.301.258 4.112.099 7.805.185 11.436.185 4.075 0 8.038-.11 12.384-.43 19.129-1.453 34.774-14.87 52.365-34.59 1.662-1.897 1.76-4.69-.136-6.353-1.834-1.65-5.01-1.748-6.72 0-3.792 3.952-9.836 6.426-15.72 6.426-12.384 0-22.465-10.094-22.465-22.477S81.14 101.58 93.525 101.58c5.97 0 11.57 2.302 15.818 6.5 1.822 1.81 4.776 1.785 6.598-.037l.049-.05c1.76-1.834 1.723-4.763-.074-6.56-6.007-5.921-13.934-9.196-22.379-9.196-.788 0-1.575.062-2.35.123 7.89-8.973 21.529-35.907 22.169-37.692 20.286 7.448 39.735 22.256 39.735 67.285 0 3.41-.197 7.632-.418 12.112-.653 13.48-1.379 28.411 2.166 37.705-2.819.061-5.391.123-7.829.172-8.801.197-15.165.357-22.908-.234a35.7 35.7 0 0 1-8.912-1.81 4.673 4.673 0 0 0-5.909 2.943 4.673 4.673 0 0 0 2.942 5.908 45.3 45.3 0 0 0 11.177 2.265c4.346.333 8.322.431 12.384.431 3.619 0 7.324-.098 11.448-.185 5.391-.123 11.522-.258 19.301-.258a4.67 4.67 0 0 0 4.666-4.665 4.67 4.67 0 0 0-4.666-4.666zM78.446 92.557c-7.3 7.977-13.061 14.28-14.76 20.557 0 .013 0 .05-.012.074a31.5 31.5 0 0 0-1.945 10.87c0 17.528 14.267 31.808 31.796 31.808.123 0 .234-.037.357-.037-11.559 10.438-20.951 15.165-30.848 15.891-7.743.591-14.095.431-22.896.234-2.437-.049-5.022-.11-7.841-.172 3.545-9.281 2.831-24.213 2.179-37.704-.222-4.481-.431-8.716-.431-12.113 0-25.961 4.85-54.027 39.686-67.223 4.788 13.171 11.386 19.905 19.597 20.015-4.64 6.55-10.082 12.52-14.882 17.776zm15.067-27.106c-6.894 0-12.569-15.596-14.895-28.164 3.053-.665 8.038-1.428 14.895-1.428s11.866.763 14.894 1.428c-2.339 12.568-7.989 28.164-14.894 28.164" />
  <path fill="#feffff" d="M380.733 42.987c-2.487 0-4.394.715-5.71 2.142-1.318 1.428-1.983 3.472-1.983 6.143v21.196c-5.158-5.871-15.068-5.823-21.53-2.142-6.918 4.013-9.958 11.19-9.909 19.733-.049 8.567 2.99 15.794 9.909 19.868 6.807 3.988 17.307 3.667 22.28-2.992l.1 1.034c1.157 2.696 3.445 4.051 6.843 4.051v-.024c5.158 0 7.744-2.77 7.744-8.322V51.258c0-5.514-2.586-8.27-7.744-8.27M209.668 67.681c-8.867.195-17.725 4.15-21.864 12.075q-2.216 4.284-2.216 10.303c-.53 14.414 12.088 22.526 25.112 22.366 4.96.013 9.946-1.194 13.922-3.693 10.39-5.871-.653-16.617-8.076-9.49-3.077 3.718-9.305 3.485-12.444-.171-2.08-2.376-2.855-5.515-2.855-8.999 0-3.496.787-6.623 2.855-9.023 3.114-3.705 9.416-3.94 12.444-.16 7.46 7.04 18.465-3.631 8.076-9.54-4.312-2.548-9.634-3.785-14.954-3.668m209.71 0c-6.539-.238-13.211 1.666-17.804 5.797-7.916 6.5-9.098 20.593-3.731 28.84 4.382 6.87 12.249 10.194 20.349 10.194 7.878-.086 16.014-1.476 21.123-6.954 1.637-1.736 1.673-5.848-.358-7.313-3.065-2.45-7.534-.922-10.574.986-6.844 4.9-17.663 3.705-18.783-6.303h23.695c4.998-.061 7.373-1.527 7.41-6.611.093-11.894-10.43-18.24-21.327-18.636m-89.901.013c-6.196-.263-12.82 2.955-16.928 7.248l-.331-1.488c-1.736-3.028-5.171-4.752-8.692-4.728h-4.247c-2.794 0-4.934.432-6.411 1.306-2.831 1.453-2.87 5.55-.616 7.397 1.55 1.613 5.478 1.392 7.841 1.38v22.673h-3.299c-5.059-.443-7.78 5.307-4.198 8.643q1.607 1.44 5.244 1.44h20.164c3.816.049 6.352-1.502 6.463-5.035-.099-5.86-6.292-5.01-10.76-5.034l-.012-.014V88.891c-.086-6.438 5.503-10.624 11.56-8.187 3.237 1.23 8.406 1.835 11.04-.861 2.634-2.351 2.806-9.011-.874-10.636-1.862-.951-3.88-1.425-5.944-1.513zm-72.26.022c-6.782.21-13.933.445-19.19 4.076-2.215 1.465-2.116 5.872-.048 7.312 2.092 1.638 5.81 1.44 8.382.541 5.146-1.539 17.183-3.36 18.5 4.051v3.422c-7.533-5.097-21.847-3.867-28.064 2.94-3.643 3.792-3.559 11.584-.444 15.696 6.093 8.53 23.745 9.318 29.174-.16l.049.627c.344 4.087 3.472 5.441 7.744 5.441h4.627c4.493-.049 7.435-.997 7.644-5.17.05-3.927-3.076-5.317-6.707-5.034V82.07c0-2.302-.58-4.345-1.749-6.118-4.21-6.216-12.569-8.186-19.917-8.236m210.436 0c-6.783.21-13.936.445-19.193 4.076-2.215 1.465-2.116 5.872-.049 7.312 2.093 1.638 5.81 1.44 8.383.541 5.145-1.539 17.185-3.36 18.503 4.051v3.422c-7.534-5.097-21.85-3.867-28.067 2.94-3.643 3.792-3.557 11.584-.443 15.696 6.094 8.53 23.744 9.318 29.172-.16l.052.627c.344 4.087 3.47 5.441 7.741 5.441h4.63c4.493-.049 7.435-.997 7.644-5.17.05-3.927-3.078-5.317-6.71-5.034V82.07c0-2.302-.579-4.345-1.748-6.118-4.21-6.216-12.567-8.186-19.915-8.236m-48.892 9.669c3.88-.051 7.69 2.445 8.354 7.64H409.98c.947-4.992 4.9-7.59 8.78-7.64m-53.567 1.203c3.837-.115 7.57 3.13 7.846 7.248v9.455c-.603 5.256-7.301 8.407-11.597 5.034-3.028-2.314-4.22-6.13-4.22-10.266 0-4.149 1.143-7.902 4.22-10.143 1.179-.877 2.471-1.29 3.75-1.328M255.215 92.25c3.71-.09 7.863 1.22 9.66 3.128v1.92c-1.797 3.04-5.613 5.625-9.49 5.54-3.472.06-7.325-1.27-7.177-5.307.03-3.699 3.298-5.19 7.007-5.281m210.435 0c3.71-.09 7.86 1.22 9.658 3.128v1.92c-1.798 3.04-5.613 5.625-9.49 5.54-3.472.06-7.325-1.27-7.177-5.307.03-3.699 3.3-5.19 7.01-5.281m-268.516 35.045c-1.97 0-3.778.285-5.415.863s-2.955 1.415-3.94 2.498q-1.477 1.626-1.477 3.916c0 2.191.826 3.963 2.463 5.317s4.16 2.46 7.581 3.335c2.549.677 4.483 1.428 5.825 2.278 1.341.849 2.004 2.018 2.004 3.508 0 1.01-.33 1.883-1.008 2.61s-1.564 1.28-2.647 1.675a10.5 10.5 0 0 1-3.495.578c-1.822 0-3.337-.32-4.556-.948s-2.204-1.405-2.93-2.34a5.2 5.2 0 0 0-1.021-.885c-.357-.234-.763-.345-1.23-.345-.53 0-.95.172-1.257.505-.308.332-.467.714-.467 1.132 0 .788.37 1.502 1.12 2.142 1.01 1.096 2.376 2.007 4.112 2.721q2.603 1.07 6.167 1.07l-.038.025c2.08 0 3.99-.332 5.688-.972 1.7-.64 3.064-1.576 4.074-2.795s1.515-2.67 1.515-4.369c0-1.588-.394-2.93-1.206-4.013s-2.007-2.008-3.57-2.783c-1.564-.776-3.496-1.464-5.774-2.091-2.462-.69-4.297-1.43-5.503-2.23-1.22-.8-1.82-1.858-1.82-3.163 0-.874.306-1.625.934-2.24s1.44-1.096 2.45-1.428a10.4 10.4 0 0 1 3.263-.505c1.539 0 2.854.27 3.962.812 1.108.541 1.947 1.218 2.525 2.03.271.308.579.604.948.875q.534.406 1.217.407a1.7 1.7 0 0 0 1.159-.431c.32-.296.478-.677.478-1.157 0-.382-.098-.739-.282-1.084a3.3 3.3 0 0 0-.788-.947c-.935-1.108-2.216-1.97-3.804-2.61s-3.287-.961-5.257-.961m32.783 0c-1.97 0-3.78.285-5.417.863s-2.956 1.415-3.94 2.498q-1.477 1.626-1.477 3.916c0 2.191.825 3.963 2.462 5.317s4.16 2.46 7.582 3.335c2.548.677 4.482 1.428 5.824 2.278 1.342.849 2.007 2.018 2.007 3.508 0 1.01-.333 1.883-1.01 2.61s-1.564 1.28-2.648 1.675a10.5 10.5 0 0 1-3.495.578c-1.821 0-3.337-.32-4.556-.948s-2.201-1.405-2.927-2.34a5.2 5.2 0 0 0-1.024-.885c-.357-.234-.762-.345-1.23-.345-.53 0-.947.172-1.255.505-.307.332-.47.714-.47 1.132 0 .788.371 1.502 1.122 2.142 1.01 1.096 2.376 2.007 4.111 2.721q2.603 1.07 6.167 1.07l-.038.025c2.08 0 3.99-.332 5.689-.972s3.064-1.576 4.073-2.795 1.515-2.67 1.515-4.369c0-1.588-.393-2.93-1.206-4.013s-2.007-2.008-3.57-2.783c-1.564-.776-3.496-1.464-5.773-2.091-2.462-.69-4.296-1.43-5.502-2.23-1.219-.8-1.822-1.858-1.822-3.163 0-.874.307-1.625.935-2.24.627-.616 1.44-1.096 2.449-1.428a10.4 10.4 0 0 1 3.263-.505c1.54 0 2.855.27 3.963.812 1.107.541 1.946 1.218 2.525 2.03.27.308.578.604.947.875q.535.406 1.217.407a1.7 1.7 0 0 0 1.16-.431c.32-.296.477-.677.477-1.157 0-.382-.097-.739-.282-1.084a3.3 3.3 0 0 0-.788-.947c-.935-1.108-2.216-1.97-3.804-2.61s-3.285-.961-5.254-.961m137.546 0c-1.97 0-3.778.285-5.415.863s-2.955 1.415-3.94 2.498q-1.477 1.626-1.477 3.916c0 2.191.825 3.963 2.463 5.317 1.637 1.354 4.16 2.46 7.581 3.335 2.548.677 4.48 1.428 5.822 2.278 1.342.849 2.007 2.018 2.007 3.508 0 1.01-.33 1.883-1.008 2.61s-1.564 1.28-2.647 1.675a10.5 10.5 0 0 1-3.497.578c-1.822 0-3.336-.32-4.554-.948s-2.204-1.405-2.93-2.34a5.2 5.2 0 0 0-1.021-.885c-.357-.234-.763-.345-1.23-.345-.53 0-.95.172-1.257.505-.308.332-.468.714-.468 1.132 0 .788.37 1.502 1.122 2.142 1.009 1.096 2.375 2.007 4.11 2.721q2.604 1.07 6.168 1.07l-.038.025c2.08 0 3.99-.332 5.688-.972 1.699-.64 3.064-1.576 4.074-2.795s1.515-2.67 1.515-4.369c0-1.588-.396-2.93-1.208-4.013-.813-1.083-2.005-2.008-3.569-2.783-1.563-.776-3.496-1.464-5.773-2.091-2.462-.69-4.297-1.43-5.504-2.23-1.218-.8-1.822-1.858-1.822-3.163 0-.874.31-1.625.937-2.24.628-.616 1.44-1.096 2.45-1.428a10.4 10.4 0 0 1 3.26-.505c1.54 0 2.857.27 3.965.812 1.108.541 1.944 1.218 2.523 2.03.27.308.578.604.947.875q.536.406 1.22.407c.455 0 .836-.148 1.156-.431.32-.296.48-.677.48-1.157 0-.382-.097-.739-.282-1.084a3.3 3.3 0 0 0-.787-.947c-.936-1.108-2.216-1.97-3.804-2.61s-3.288-.961-5.257-.961m88.372.013c-1.49 0-2.968.27-4.42.812-1.453.542-2.782 1.391-3.976 2.56s-2.153 2.685-2.867 4.568c-.714 1.884-1.073 4.16-1.073 6.857q.001 4.043 1.073 6.87c.714 1.883 1.673 3.408 2.867 4.578 1.194 1.157 2.523 2.019 3.976 2.56 1.452.542 2.93.812 4.42.812q2.215 0 4.394-.812c1.452-.541 2.781-1.391 3.975-2.56s2.154-2.683 2.868-4.579 1.072-4.174 1.072-6.87-.358-4.972-1.072-6.856-1.674-3.398-2.868-4.567c-1.194-1.157-2.523-2.019-3.975-2.56a12.4 12.4 0 0 0-4.394-.813m-201.941.05c-.64 0-1.12.21-1.453.64-.344.419-.502 1.058-.502 1.895v24.325c0 1.686.65 2.523 1.955 2.523s1.958-.849 1.958-2.523v-11.141h13.207v11.14c0 1.687.641 2.524 1.958 2.524s1.982-.849 1.982-2.523v-24.325c0-1.686-.677-2.536-1.982-2.536s-1.958.838-1.958 2.536v10.156h-13.207v-10.156c0-1.686-.653-2.536-1.958-2.536m83.238.062a2.6 2.6 0 0 0-1.735.651c-.505.431-.862 1.01-1.084 1.725l-8.345 24.286a4 4 0 0 0-.16.565 2.5 2.5 0 0 0-.049.505c0 .554.17.986.503 1.282.332.295.751.442 1.268.442h.025c.664 0 1.157-.172 1.477-.53.308-.356.58-.899.776-1.65l2.167-6.24h11.484l2.167 6.24c.197.739.456 1.294.776 1.65.32.346.8.53 1.453.53.529 0 .96-.148 1.292-.431s.505-.714.505-1.293c0-.16-.013-.32-.038-.505a3 3 0 0 0-.146-.565l-8.347-24.286c-.222-.714-.58-1.294-1.084-1.725a2.64 2.64 0 0 0-1.76-.651zm157.023 0c-1.256 0-1.884.812-1.884 2.449v20.716L480.478 129.5c-.357-.665-.787-1.183-1.28-1.54-.504-.357-1.095-.53-1.797-.53h-.098c-.788 0-1.43.224-1.897.655-.48.43-.712 1.045-.712 1.857v24.35c0 1.636.626 2.449 1.882 2.449h.024c1.256 0 1.885-.813 1.885-2.45v-20.767l11.866 21.137c.357.664.762 1.182 1.23 1.539.468.345 1.047.527 1.749.527h.135q1.182 0 1.882-.663c.468-.43.703-1.058.703-1.846v-24.349c0-.812-.161-1.43-.493-1.835q-.498-.612-1.402-.614m-193.817.17c-1.662 0-2.498.852-2.498 2.526v23.817c0 1.687.836 2.525 2.498 2.525h8.04c2.167 0 3.988-.297 5.477-.888 1.49-.59 2.623-1.487 3.41-2.67q1.182-1.79 1.182-4.468c0-1.453-.26-2.634-.776-3.558-.517-.923-1.157-1.637-1.896-2.142s-1.453-.85-2.118-1.059c-.584-.184-1.024-.281-1.323-.303q.392-.039 1.103-.3c.566-.197 1.156-.542 1.784-1.034.628-.493 1.157-1.169 1.6-2.043s.665-1.983.665-3.337c0-1.945-.467-3.422-1.415-4.431-.948-1.01-2.204-1.698-3.755-2.067-1.564-.381-3.262-.567-5.108-.567zm87.572 0c-.825 0-1.44.125-1.871.384-.431.258-.641.627-.641 1.107s.21.862.64 1.133c.42.27 1.047.405 1.872.405h6.87v23.61c0 1.686.638 2.525 1.955 2.525s1.982-.85 1.982-2.525v-23.61h7.226q1.072 0 1.626-.405c.37-.271.554-.653.554-1.133 0-.994-.834-1.488-2.5-1.49zm31.132 0c-.776 0-1.355.125-1.725.384q-.553.387-.553 1.107c0 .48.184.862.553 1.133.37.27.95.405 1.725.405h5.428v22.785h-5.428c-.776 0-1.355.137-1.725.396q-.553.404-.553 1.143c0 .468.184.826.553 1.097.37.258.95.394 1.725.394h14.5c.775 0 1.353-.136 1.722-.394.37-.259.554-.63.554-1.097 0-.505-.185-.873-.554-1.143-.37-.259-.947-.396-1.722-.396h-5.268v-22.785h5.268c.775 0 1.353-.134 1.722-.405.37-.271.554-.653.554-1.133s-.185-.861-.554-1.107c-.37-.247-.947-.383-1.722-.383zm36.793 2.77c1.44 0 2.78.42 4.036 1.269s2.266 2.142 3.054 3.877c.788 1.748 1.182 3.927 1.182 6.599 0 2.67-.394 4.887-1.182 6.622s-1.811 3.029-3.054 3.878c-1.244.85-2.596 1.268-4.036 1.268-1.428 0-2.783-.419-4.05-1.268-1.281-.85-2.302-2.142-3.078-3.878-.775-1.748-1.17-3.964-1.17-6.622 0-2.66.395-4.863 1.17-6.599.776-1.735 1.797-3.028 3.077-3.877 1.268-.85 2.611-1.268 4.051-1.268m-118.125.05c.037.16.087.333.136.518.037.185.086.381.136.603l4.64 13.908h-9.846l4.665-13.908a4 4 0 0 1 .147-.603c.05-.185.085-.358.122-.518m-35.906.209h5.342c1.219 0 2.302.112 3.275.358s1.735.69 2.313 1.355c.579.664.863 1.623.863 2.878q0 1.588-.703 2.697-.701 1.107-1.957 1.7c-.837.393-1.834.589-2.98.589h-6.152zm0 12.335h6.338c1.748 0 3.239.406 4.47 1.206s1.846 2.142 1.846 3.927-.58 3.126-1.748 4c-1.17.874-2.979 1.317-5.429 1.317v-.012h-5.477z" />
</svg>
