<?xml version="1.0" encoding="UTF-8" standalone="no"?>
<!-- Designed by Javi Laguna -->
<svg xmlns="http://www.w3.org/2000/svg" xmlns:svg="http://www.w3.org/2000/svg" version="1.1" width="256" height="256" viewBox="0 0 256 256" preserveAspectRatio="xMidYMid meet">
  <path fill="#ffffff" d="M127.914 75.535c-16.141 0-23.81-38.806-24.632-43.24l-.565-3.029 3.013-.667c4.434-.976 11.897-2.14 22.184-2.14s17.768 1.164 22.185 2.14l2.995.667-.565 3.03c-.821 4.416-8.49 43.239-24.632 43.239z" />
  <path fill="#929393" d="M67.199 229.49c-4.913 0-9.98-.12-15.851-.257L35 228.873l1.61-4.21c4.895-12.804 3.851-34.218 2.944-53.099l-.052-1.095c-.29-6.077-.582-11.829-.582-16.536 0-38.326 7.053-80.178 59.33-99.966l3.012-1.147 1.096 3.03c6.419 17.63 14.926 26.652 25.334 26.789l6.042.085-3.492 4.947c-6.898 9.723-15.114 18.727-21.722 25.95-10.116 11.075-18.076 19.788-20.455 27.953v.377l-.274.548a42.2 42.2 0 0 0-2.55 14.43c0 23.553 19.154 42.708 42.69 42.708.052-.017.274-.052.514-.052h8.268l-6.128 5.547c-16.947 15.303-31.257 22.629-46.389 23.742-5.494.427-10.732.616-16.963.616z" />
  <path fill="#b8b7b7" d="M219.322 224.663c-4.861-12.753-3.834-34.133-2.927-52.996 6.624-79.648-28.398-108.046-58.919-117.854l-2.927-.942-1.044 2.893c-.496 1.37-1.917 4.262-3.868 7.857l-2.602 4.861c-7.344 13.763-11.041 20.678-25.129 40.928l-3.868 5.564 6.761-.582a39 39 0 0 1 3.492-.154c10.938 0 21.756 4.484 29.665 12.307 1.37 1.37 1.403 3.629.068 5.015l-1.9 1.969 1.678 2.174c9.055 11.725 9.038 30.743-.017 42.417l-1.712 2.208 1.968 1.986c1.233 1.25 1.25 3.458.086 4.793-10.784 12.085-19.668 20.952-27.97 27.85l2.037 2.448s2.995 2.516 6.094 4.365c6.162 3.663 12.341 5.563 12.341 5.563l3.013 1.01a3.56 3.56 0 0 1 3.39-2.414c.376 0 .77.069 1.112.172 4.52 1.523 8.987 2.43 13.626 2.755 5.22.411 10.75.6 17.442.6 5.735 0 11.435-.137 17.477-.291 3.218-.086 6.454-.154 9.74-.223l4.536-.086-1.609-4.228z" />
  <path fill="#ffffff" d="M167.815 156.929c0 8.661-2.79 16.655-7.514 23.16-7.155 9.91-18.83 16.364-31.993 16.364-21.842 0-39.524-17.682-39.524-39.524s17.682-39.525 39.524-39.525c13.18 0 24.838 6.436 32.027 16.365a39.36 39.36 0 0 1 7.497 23.16z" />
  <path fill="#474848" d="M233.221 225.673c-.958 0-1.574-.274-2.242-.959-6.522-6.847-5.187-34.406-4.314-52.636.343-6.625.634-12.907.634-18.128 0-58.816-20.695-92.965-66.878-109.929 2.242-8.884 3.2-15.85 3.252-16.244a6.725 6.725 0 0 0-4.16-7.138c-.445-.171-11.246-4.416-31.616-4.416s-31.154 4.245-31.599 4.416a6.746 6.746 0 0 0-4.16 7.138c.052.41 1.01 7.378 3.253 16.262-46.115 16.98-66.775 51.147-66.775 109.911 0 5.221.308 11.52.633 18.128.89 18.247 2.225 45.806-4.28 52.636-.667.702-1.3.959-2.242.959A6.717 6.717 0 0 0 16 232.4a6.73 6.73 0 0 0 6.727 6.727c11.195 0 20.045.205 27.85.377 5.923.137 11.264.273 16.502.273 5.871 0 11.605-.154 17.87-.633 27.594-2.088 50.172-21.448 75.557-49.915 2.397-2.738 2.534-6.761-.205-9.157-2.636-2.38-7.24-2.534-9.689 0-5.477 5.7-14.19 9.26-22.68 9.26-17.871 0-32.404-14.567-32.404-32.42s14.533-32.421 32.404-32.421c8.61 0 16.69 3.32 22.817 9.38 2.62 2.602 6.881 2.585 9.518-.051l.068-.068c2.533-2.654 2.5-6.865-.12-9.466-8.661-8.542-20.113-13.267-32.283-13.267-1.147 0-2.26.086-3.39.172 11.383-12.941 31.051-51.815 31.976-54.366 29.254 10.75 57.326 32.113 57.326 97.074 0 4.913-.29 11.024-.599 17.477-.941 19.462-2.002 40.996 3.116 54.4-4.057.085-7.789.17-11.28.239-12.702.291-21.877.514-33.055-.342-4.382-.308-8.593-1.164-12.855-2.602-3.526-1.164-7.343.719-8.524 4.245-1.164 3.526.718 7.343 4.245 8.524a65.2 65.2 0 0 0 16.141 3.27c6.266.48 12 .633 17.871.633 5.221 0 10.562-.137 16.519-.274 7.788-.17 16.62-.376 27.85-.376a6.73 6.73 0 0 0 6.727-6.727c0-3.698-3.013-6.728-6.727-6.728zM106.175 111.464c-10.527 11.52-18.846 20.593-21.294 29.665 0 .017 0 .069-.017.12a45.4 45.4 0 0 0-2.807 15.68c0 25.282 20.575 45.892 45.875 45.892.17 0 .342-.052.513-.052-16.672 15.064-30.23 21.877-44.506 22.938-11.177.856-20.335.633-33.036.342-3.527-.068-7.241-.154-11.315-.24 5.118-13.402 4.091-34.936 3.15-54.399-.309-6.47-.634-12.564-.634-17.477 0-37.453 7.001-77.953 57.275-96.988 6.916 19 16.433 28.723 28.279 28.877-6.693 9.45-14.55 18.06-21.483 25.643m21.74-39.113c-9.946 0-18.128-22.51-21.5-40.637 4.399-.959 11.605-2.071 21.5-2.071 9.893 0 17.117 1.095 21.499 2.07-3.372 18.128-11.537 40.638-21.5 40.638" />
</svg>
